<svg xmlns="http://www.w3.org/2000/svg" xmlns:xlink="http://www.w3.org/1999/xlink" baseProfile="tiny-ps" viewBox="0 0 576 576"><path fill="#fff" d="M0 0v264c4-9 3-21 5-30A290 290 0 0 1 210 11c18-5 36-10 55-10-7-3-17-1-24-1H0z"/><use xlink:href="#a" fill="#fdd2d2"/><use xlink:href="#a" x="3" fill="#feb2b2"/><path fill="#ff3131" d="M279 0c-18 3-35 3-53 7a291 291 0 0 0-160 98 292 292 0 0 0-9 355 287 287 0 0 0 145 103 298 298 0 0 0 127 10 289 289 0 0 0 246-309A289 289 0 0 0 352 8a296 296 0 0 0-51-7c-7 0-14-2-22-1z"/><use xlink:href="#b" fill="#fc6565"/><use xlink:href="#c" fill="#fd9292"/><use xlink:href="#a" x="40" fill="#feb2b2"/><use xlink:href="#a" x="43" fill="#fdd2d2"/><path fill="#fff" d="m311 0 10 1a290 290 0 0 1 85 24c76 35 136 102 158 182a214 214 0 0 1 11 57c3-7 1-17 1-24V0H311z"/><use xlink:href="#a" x="-11" y="1" fill="#fedddd"/><use xlink:href="#c" x="-46" y="1" fill="#fc9696"/><use xlink:href="#d" fill="#fe5454"/><use xlink:href="#a" x="48" y="1" fill="#fe5e5e"/><use xlink:href="#a" x="51" y="1" fill="#fc9696"/><use xlink:href="#a" x="54" y="1" fill="#fedddd"/><use xlink:href="#a" x="-18" y="2" fill="#fcbebe"/><use xlink:href="#c" x="-53" y="2" fill="#fe7b7b"/><path fill="#fd5555" d="M252 2a7 7 0 0 0 3 1 7 7 0 0 0-3-1m69 0a7 7 0 0 0 3 1 7 7 0 0 0-3-1z"/><use xlink:href="#c" x="21" y="2" fill="#fd9191"/><use xlink:href="#c" x="23" y="2" fill="#fcbfbf"/><use xlink:href="#a" x="-24" y="3" fill="#feb9b9"/><use xlink:href="#c" x="-59" y="3" fill="#fd5656"/><use xlink:href="#c" x="27" y="3" fill="#fc7979"/><use xlink:href="#a" x="67" y="3" fill="#feb9b9"/><use xlink:href="#a" x="-31" y="4" fill="#fee0e0"/><use xlink:href="#c" x="-66" y="4" fill="#fc7d7d"/><use xlink:href="#a" x="70" y="4" fill="#fe5d5d"/><use xlink:href="#c" x="35" y="4" fill="#fdc7c7"/><use xlink:href="#c" x="-72" y="5" fill="#fe8787"/><use xlink:href="#c" x="-70" y="5" fill="#fc4f4f"/><use xlink:href="#a" x="76" y="5" fill="#fd6a6a"/><use xlink:href="#c" x="41" y="5" fill="#fdd6d6"/><path fill="#fd9d9d" d="M227 6v1-1m121 0v1-1z"/><use xlink:href="#c" x="-81" y="7" fill="#fc8282"/><use xlink:href="#c" x="48" y="7" fill="#fc8383"/><use xlink:href="#c" x="50" y="7" fill="#fedbdb"/><use xlink:href="#c" x="-85" y="8" fill="#fe7373"/><use xlink:href="#c" x="53" y="8" fill="#fc9e9e"/><use xlink:href="#c" x="-89" y="9" fill="#fc8585"/><use xlink:href="#c" x="57" y="9" fill="#fdb7b7"/><use xlink:href="#c" x="-96" y="11" fill="#fe7474"/><use xlink:href="#c" x="64" y="11" fill="#fca3a3"/><use xlink:href="#c" x="-111" y="16" fill="#fe4949"/><path fill="#ff2424" d="M273 23c8 3 20 1 28 1-8-3-20-1-28-1z"/><use xlink:href="#a" x="-2" y="25" fill="#f96969"/><use xlink:href="#a" x="1" y="25" fill="#f59292"/><use xlink:href="#d" x="10" y="24" fill="#efcece"/><path fill="#edecec" d="M148 69c5-2 10-5 13-9 3 0 4 0 5-3 3 0 4 0 6-3 3 0 4 0 6-3l3 1 4-4 7-1v-2c8 1 16-6 24-6 3-3 7-3 11-3l9-3 19-3c23-2 45-3 67 0 8 1 21 1 27 6h8c-3-3-7-4-12-5a274 274 0 0 0-153 12c-11 4-22 9-32 15-5 3-11 5-12 11z"/><use xlink:href="#a" x="37" y="25" fill="#efcece"/><use xlink:href="#a" x="40" y="25" fill="#f3adad"/><use xlink:href="#a" x="43" y="25" fill="#f78484"/><use xlink:href="#a" x="-12" y="26" fill="#fa6161"/><use xlink:href="#c" x="-47" y="26" fill="#f49e9e"/><use xlink:href="#c" x="-45" y="26" fill="#f1bdbd"/><use xlink:href="#c" x="11" y="26" fill="#efcdcd"/><use xlink:href="#a" x="51" y="26" fill="#f2aeae"/><use xlink:href="#a" x="54" y="26" fill="#f87474"/><use xlink:href="#a" x="-19" y="27" fill="#fa5e5e"/><path fill="#f3aaaa" d="M250 27v1-1m75 0v1-1z"/><use xlink:href="#c" x="23" y="27" fill="#f87373"/><use xlink:href="#a" x="-25" y="28" fill="#fa5d5d"/><use xlink:href="#c" x="-60" y="28" fill="#f2b7b7"/><path fill="#ededed" d="M227 36c-4 0-8 0-11 3-8-1-16 6-24 6v2l-7 1c-2 4-3 1-4 4l-3-1c-2 2-3 3-6 3-2 2-3 3-6 3-2 2-2 3-5 3-3 4-8 7-13 9l1-4c-6 2-12 7-17 11a264 264 0 0 0-93 298 265 265 0 0 0 274 176c111-11 205-92 231-201A266 266 0 0 0 434 69a260 260 0 0 0-54-28c-8-3-16-6-25-7l2 2h-8c-2-3-6-3-9-3l-18-3c-23-3-46-2-69 0l-18 3c-3 1-6 0-8 3z"/><use xlink:href="#a" x="64" y="28" fill="#efcece"/><use xlink:href="#c" x="29" y="28" fill="#f77b7b"/><use xlink:href="#c" x="-67" y="29" fill="#f4a1a1"/><use xlink:href="#c" x="-65" y="29" fill="#efcece"/><use xlink:href="#a" x="71" y="29" fill="#f1b8b8"/><use xlink:href="#c" x="36" y="29" fill="#fb5353"/><use xlink:href="#a" x="-34" y="30" fill="#f68a8a"/><use xlink:href="#c" x="39" y="30" fill="#f68989"/><path fill="#f3a3a3" d="M228 31v1-1m119 0v1-1z"/><use xlink:href="#c" x="45" y="31" fill="#fb5353"/><use xlink:href="#a" x="-42" y="32" fill="#f3a7a7"/><use xlink:href="#c" x="48" y="32" fill="#f77979"/><use xlink:href="#c" x="-84" y="33" fill="#f59797"/><use xlink:href="#c" x="52" y="33" fill="#f96d6d"/><use xlink:href="#c" x="-88" y="34" fill="#f68f8f"/><use xlink:href="#c" x="55" y="34" fill="#f68e8e"/><use xlink:href="#c" x="-90" y="35" fill="#efd2d2"/><path fill="#f3aaaa" d="M210 36v1-1m155 0 1 1-1-1z"/><use xlink:href="#c" x="-100" y="38" fill="#f1bdbd"/><use xlink:href="#c" x="68" y="38" fill="#f68d8d"/><use xlink:href="#d" x="148" y="143" fill="#aeabab"/><use xlink:href="#c" x="81" y="145" fill="#d1d0d0"/><use xlink:href="#a" x="141" y="145" fill="#211919"/><use xlink:href="#a" x="144" y="145" fill="#494343"/><path fill="#5d5757" d="M384 146v3l2-3h-2z"/><path fill="#2e2626" d="m386 146-1 2h2l-1-2z"/><path fill="#1f1717" d="m399 155 7-9c-4 2-6 5-7 9z"/><path fill="#ececec" d="M399 158h-2c-2-6-6-9-12-10v8c2 7 8 13 12 18h2l10-16c2-2 4-5 3-8 0-3-3-4-6-2-4 2-6 6-7 10z"/><path fill="#453f3f" d="m383 147 1 3a7 7 0 0 0-1-3z"/><use xlink:href="#c" x="84" y="147" fill="#130a0a"/><use xlink:href="#e" fill="#393232"/><use xlink:href="#c" x="86" y="148" fill="#3f3838"/><use xlink:href="#f" fill="#c8c7c7"/><path fill="#fdfefe" d="M380 149v5-5z"/><path fill="#959292" d="M381 149v4-4z"/><path fill="#1c1414" d="m382 149 1 8c1-3 0-5-1-8z"/><path fill="#fdfefe" d="M384 149v5l2-5h-2z"/><use xlink:href="#e" x="-30" y="3" fill="#9b9797"/><path fill="#484141" d="M392 150a18 18 0 0 0 4 4 7 7 0 0 0-4-4z"/><use xlink:href="#f" x="-1" y="2" fill="#1f1717"/><use xlink:href="#c" x="109" y="152" fill="#403939"/><use xlink:href="#f" x="-2" y="5" fill="#020000"/><use xlink:href="#c" x="93" y="155" fill="#5a5454"/><use xlink:href="#f" x="-3" y="7" fill="#030000"/><use xlink:href="#f" x="-29" y="10" fill="#403a3a"/><path fill="#423b3b" d="m408 160-3 6c3-1 4-3 5-6h-2z"/><use xlink:href="#f" x="-27" y="13" fill="#4a4343"/><path fill="#554f4f" d="M389 164a7 7 0 0 0 2 3 7 7 0 0 0-2-3z"/><path fill="#0e0505" d="M404 166v2c2 0 2 0 2-2h-2z"/><path fill="#554f4f" d="M392 169a12 12 0 0 0 3 3l-3-3z"/><path fill="#3c3535" d="M401 170v2c2 0 2 0 2-2h-2z"/><use xlink:href="#f" x="-15" y="25" fill="#524c4c"/><use xlink:href="#d" x="152" y="172" fill="#b9b7b7"/><use xlink:href="#a" x="166" y="173" fill="#9f9c9c"/><path fill="#383131" d="m409 177 5-2c-3-1-3 0-5 2z"/><path fill="#4c4646" d="M412 175c2 2 4 2 7 2-2-2-4-2-7-2z"/><path fill="#423b3b" d="m426 178 1 1c4-2 6-3 11-2-4-4-8-3-12 1z"/><use xlink:href="#c" x="129" y="175" fill="#716d6d"/><use xlink:href="#f" x="-6" y="28" fill="#070000"/><path fill="#ededed" d="M421 207c6-3 12-13 15-20v-9c-2-2-5-2-7 0-3 2-4 7-5 11-3-3-4-7-6-10-5-5-10-1-9 5 2 9 8 16 12 23z"/><path fill="#403939" d="M407 177v5-5z"/><path fill="#373030" d="m418 177 1 4c1-2 0-2-1-4z"/><use xlink:href="#f" x="23" y="29" fill="#130a0a"/><path fill="#2b2424" d="m426 178-2 4c2-1 2-2 2-4z"/><path fill="#332c2c" d="m438 178-1 6c2-2 2-3 1-6z"/><use xlink:href="#e" x="-5" y="32" fill="#d7d6d6"/><path fill="#fff" d="M436 179v4-4z"/><path fill="#747070" d="M437 179v4-4z"/><use xlink:href="#f" x="6" y="32"/><path fill="#cccbcb" d="M406 181v5-5z"/><use xlink:href="#e" x="-6" y="35" fill="#090101"/><use xlink:href="#f" x="-6" y="34" fill="#7d7878"/><path fill="#150d0d" d="m420 182 1 3a7 7 0 0 0 1-3h-2z"/><use xlink:href="#f" x="10" y="34" fill="#120909"/><use xlink:href="#f" x="-6" y="36" fill="#362e2e"/><path d="m423 184-1 4c1-2 2-2 1-4z"/><use xlink:href="#f" x="23" y="36"/><path fill="#615b5b" d="M407 185c1 3 1 4 3 5 0-3-1-3-3-5z"/><path fill="#160d0d" d="m436 186-2 6 4-6h-2z"/><use xlink:href="#b" x="-49" y="190" fill="#fff"/><path fill="#565151" d="M433 191a44 44 0 0 0-3 7c3-2 5-4 3-7z"/><path d="M279 241c4 9 13 4 17-2l5 4c4 2 7-1 10-3 5-6 6-15 13-19 3-2 7-1 7 3l-6 8c-3 3-7 5-9 9l1 1c6 0 6 4 1 6-7 4-16 7-21 15-3 4-2 10 3 12s11-3 14-6c6-6 8-14 13-20 4-4 9-7 14-9 2 6 7 7 13 6 9-2 16-11 20-19-9-1-15 20-26 15-3-2-2-5 0-6 5-3 19-8 14-17-3-4-9-1-12 1-9 7-12 18-23 22-1-9 13-14 7-24-2-4-7-4-11-2-8 4-9 13-14 19-2 2-7 5-7 0-1-3 1-6 2-8l3-9c-8 0-14-1-20 5s-9 18-19 18c2-4 8-10 7-15 0-3-4-5-5-7-2-2-1-5-1-7-8 1-6 9-10 15-5 8-14 17-24 19-8 1-14-6-13-14 2-12 10-23 19-31 5-4 18-7 13 4-2 5-7 8-8 13 8-1 13-6 14-14 0-5 0-9-5-11-6-3-12 0-17 4a50 50 0 0 0-20 33c0 6-1 14 5 18 11 7 27-2 34-11 2-2 7-13 11-12 2 0 2 3 1 4l-5 10c0 6 5 8 10 6l5-4z"/><path fill="#120909" d="M411 192a31 31 0 0 0 3 7c1-3-1-5-3-7z"/><use xlink:href="#d" x="-10" y="195" fill="#4e4e4e"/><path fill="#6e6e6e" d="M260 198v5-5z"/><path fill="#655f5f" d="m427 201 3 1 2-4a8 8 0 0 0-5 3z"/><path fill="#4e4e4e" d="M255 199v4-4z"/><path fill="#1f1717" d="m415 199 2 5c0-2 0-3-2-5z"/><path fill="#403939" d="m426 203 1 1a7 7 0 0 0 2-3 7 7 0 0 0-3 2z"/><use xlink:href="#f" x="-376" y="55" fill="#f1bcbc"/><use xlink:href="#f" x="-154" y="55" fill="#b9b9b9"/><path fill="#3f3838" d="M418 203c0 3 1 4 3 5l-3-5z"/><use xlink:href="#f" x="12" y="55" fill="#271f1f"/><use xlink:href="#f" x="123" y="55" fill="#f1baba"/><use xlink:href="#f" x="11" y="56" fill="#050000"/><use xlink:href="#f" x="-403" y="59" fill="#fe6e6e"/><use xlink:href="#c" x="105" y="207" fill="#c5c4c4"/><use xlink:href="#c" x="118" y="207" fill="#b4b1b1"/><use xlink:href="#f" x="150" y="59" fill="#fd7070"/><path fill="#413b3b" d="m407 208-2 3c2-1 3-1 2-3z"/><use xlink:href="#a" x="143" y="208" fill="#0f0707"/><path fill="#504a4a" d="m419 208 1 2c2 0 2 0 2-2h-3z"/><use xlink:href="#c" x="106" y="209" fill="#9d9a9a"/><path fill="#615c5c" d="M411 209a12 12 0 0 0 3 3l-3-3z"/><path fill="#554f4f" d="m404 210-1 7c2-2 2-4 1-7z"/><use xlink:href="#d" x="149" y="209" fill="#fafafa"/><use xlink:href="#f" x="-404" y="63" fill="#fe5656"/><use xlink:href="#a" y="211" fill="#343434"/><path fill="#ececec" d="M401 225c-3-3-6-8-10-9-2-1-5-1-5 2s2 5 3 7a60 60 0 0 0 14 13l8-16c1-2 3-5 2-8 0-3-4-3-7-1s-4 8-5 12z"/><use xlink:href="#f" x="151" y="63" fill="#fe5959"/><path fill="#524c4c" d="M387 212c2 3 4 3 7 3-2-2-4-3-7-3z"/><use xlink:href="#e" x="1" y="65" fill="#423b3b"/><use xlink:href="#f" x="-145" y="65" fill="silver"/><use xlink:href="#d" x="67" y="213" fill="#424242"/><use xlink:href="#a" x="122" y="214" fill="#c7c6c6"/><use xlink:href="#e" x="2" y="67" fill="#b9b7b7"/><use xlink:href="#f" x="152" y="66" fill="#fc7b7b"/><use xlink:href="#f" x="-380" y="67" fill="#f68e8e"/><use xlink:href="#f" x="-169" y="67" fill="#636363"/><use xlink:href="#e" x="-152" y="68" fill="#b9b9b9"/><use xlink:href="#e" x="-29" y="68" fill="#342d2d"/><path fill="#3a3333" d="M393 215a12 12 0 0 0 3 3l-3-3z"/><path fill="#3f3939" d="M402 215v5-5z"/><use xlink:href="#e" x="1" y="68" fill="#0d0404"/><use xlink:href="#f" x="127" y="67" fill="#f68c8c"/><path fill="#f8f8f8" d="M292 217h15c-4-2-10-1-15 0z"/><use xlink:href="#d" x="97" y="215" fill="#a2a2a2"/><use xlink:href="#f" x="-13" y="68" fill="#6d6767"/><use xlink:href="#f" x="-406" y="69" fill="#fd9c9c"/><use xlink:href="#c" x="-8" y="217" fill="#888"/><use xlink:href="#a" x="32" y="217" fill="#6b6b6b"/><use xlink:href="#d" x="41" y="216" fill="#b0b0b0"/><use xlink:href="#c" x="1" y="217" fill="#4a4a4a"/><use xlink:href="#e" x="-30" y="70" fill="#9d9a9a"/><path fill="#201818" d="M396 217a7 7 0 0 0 2 3 7 7 0 0 0-2-3z"/><use xlink:href="#f" x="153" y="69" fill="#fd9b9b"/><use xlink:href="#c" x="-56" y="218" fill="#797979"/><use xlink:href="#f" x="-30" y="70"/><use xlink:href="#c" x="110" y="218" fill="#2a2323"/><use xlink:href="#f" x="-406" y="71" fill="#fd5151"/><use xlink:href="#f" x="-381" y="71" fill="#f59595"/><use xlink:href="#f" x="-152" y="71" fill="#505050"/><use xlink:href="#e" x="-13" y="72" fill="#c0bebe"/><use xlink:href="#e" x="-12" y="72"/><path fill="#0b0202" d="m413 219-1 4c1-2 2-2 1-4z"/><use xlink:href="#f" x="128" y="71" fill="#f59393"/><use xlink:href="#f" x="153" y="71" fill="#fd5151"/><use xlink:href="#e" x="-50" y="73" fill="#747474"/><use xlink:href="#c" x="81" y="220" fill="#302828"/><use xlink:href="#f" x="-16" y="72" fill="#2a2222"/><use xlink:href="#e" x="-82" y="74" fill="#3b3b3b"/><use xlink:href="#e" x="-77" y="74" fill="#bfbfbf"/><use xlink:href="#f" x="-407" y="74" fill="#fc8080"/><use xlink:href="#c" x="-7" y="222" fill="#cecece"/><path fill="#ececec" d="M285 242c7-3 15-12 14-20-8 3-17 10-14 20z"/><path fill="#e8e8e8" d="M349 230a14 14 0 0 0 9-8 14 14 0 0 0-9 8z"/><use xlink:href="#f" x="-28" y="74" fill="#2f2828"/><use xlink:href="#a" x="134" y="222" fill="#332b2b"/><use xlink:href="#f" x="154" y="74" fill="#fc8484"/><use xlink:href="#f" x="-382" y="75" fill="#f4a3a3"/><use xlink:href="#c" x="-37" y="223" fill="#b2b2b2"/><use xlink:href="#f" x="-114" y="75" fill="#252525"/><use xlink:href="#f" x="129" y="75" fill="#f3a3a3"/><use xlink:href="#c" x="68" y="225" fill="#878787"/><use xlink:href="#f" x="-408" y="78" fill="#fd9999"/><path fill="#261e1e" d="M389 226a7 7 0 0 0 2 3 7 7 0 0 0-2-3z"/><path fill="#524c4c" d="m409 226-1 7 4-7h-3z"/><use xlink:href="#f" x="155" y="78" fill="#fd9a9a"/><use xlink:href="#f" x="-383" y="79" fill="#f4a0a0"/><use xlink:href="#e" x="-196" y="80" fill="#c4c4c4"/><use xlink:href="#f" x="130" y="79" fill="#f49f9f"/><path fill="#383131" d="M391 228a7 7 0 0 0 4 4 18 18 0 0 0-4-4z"/><use xlink:href="#f" x="-409" y="82" fill="#fda1a1"/><use xlink:href="#e" x="-383" y="83" fill="#fa6363"/><use xlink:href="#e" x="-196" y="83" fill="#5f5f5f"/><use xlink:href="#e" x="-191" y="83" fill="#292929"/><use xlink:href="#c" x="45" y="230" fill="#737373"/><use xlink:href="#e" x="132" y="84" fill="#f78181"/><use xlink:href="#f" x="156" y="83" fill="#fe8484"/><use xlink:href="#f" x="-409" y="84" fill="#fd6666"/><use xlink:href="#f" x="-112" y="84" fill="#cdcdcd"/><use xlink:href="#f" x="-8" y="84" fill="#4a4444"/><path fill="#656060" d="m407 232-5 7 3 1c2-3 4-5 2-8z"/><use xlink:href="#f" x="-384" y="85" fill="#efd0d0"/><path fill="#383838" d="M217 233v5-5z"/><path fill="#484848" d="M222 233v6-6z"/><path fill="#373737" d="M301 233v5-5z"/><g fill="#fedede"><use xlink:href="#e" x="-409" y="87"/><use xlink:href="#e" x="158" y="87"/></g><use xlink:href="#f" x="-385" y="88" fill="#f49797"/><use xlink:href="#f" x="132" y="88" fill="#f59595"/><use xlink:href="#f" x="-410" y="89" fill="#fc7979"/><path fill="#484848" d="M283 237v4-4z"/><use xlink:href="#f" x="157" y="89" fill="#fc7a7a"/><use xlink:href="#f" x="-385" y="90" fill="#efd0d0"/><use xlink:href="#f" x="-197" y="90" fill="#8c8c8c"/><use xlink:href="#f" x="132" y="90" fill="#efcfcf"/><use xlink:href="#f" x="-146" y="91" fill="#1f1f1f"/><use xlink:href="#f" x="-99" y="91" fill="#8e8e8e"/><use xlink:href="#e" x="134" y="92" fill="#fc4b4b"/><use xlink:href="#e" x="-385" y="93" fill="#fa6161"/><use xlink:href="#e" x="-410" y="94" fill="#feb5b5"/><path fill="#797979" d="M321 241v1-1m6 0 1 1-1-1z"/><use xlink:href="#e" x="159" y="94" fill="#feb7b7"/><use xlink:href="#c" x="14" y="242" fill="#d0d0d0"/><use xlink:href="#e" x="-91" y="95" fill="#636363"/><use xlink:href="#a" x="83" y="242" fill="#1e1e1e"/><use xlink:href="#f" x="133" y="94" fill="#f49d9d"/><use xlink:href="#f" x="-386" y="95" fill="#f1bfbf"/><use xlink:href="#f" x="-411" y="96" fill="#fd5353"/><use xlink:href="#a" x="37" y="244" fill="#cecece"/><use xlink:href="#f" x="158" y="96" fill="#fd5555"/><use xlink:href="#c" x="-69" y="245" fill="#878787"/><use xlink:href="#e" x="-386" y="99" fill="#f96565"/><use xlink:href="#a" x="3" y="246" fill="#b0b0b0"/><use xlink:href="#d" x="24" y="245" fill="#373737"/><use xlink:href="#c" x="43" y="246" fill="#4a4a4a"/><use xlink:href="#d" x="89" y="245" fill="#313131"/><use xlink:href="#e" x="135" y="99" fill="#fa6464"/><use xlink:href="#e" x="-411" y="100" fill="#fcc6c6"/><use xlink:href="#f" x="159" y="100" fill="#fcb3b3"/><use xlink:href="#f" x="-387" y="101" fill="#f2b6b6"/><use xlink:href="#f" x="134" y="101" fill="#f2b5b5"/><use xlink:href="#f" x="-412" y="102" fill="#fe8585"/><use xlink:href="#b" x="-68" y="250" fill="#161616"/><use xlink:href="#c" x="-68" y="250" fill="#5d5d5d"/><use xlink:href="#f" x="159" y="102" fill="#fe8585"/><use xlink:href="#a" x="-34" y="251" fill="#d2d2d2"/><g fill="#fd5d5d"><use xlink:href="#e" x="-411" y="105"/><use xlink:href="#e" x="160" y="105"/></g><use xlink:href="#e" x="-387" y="106" fill="#f96363"/><use xlink:href="#f" x="-96" y="105" fill="#d8d8d8"/><use xlink:href="#e" x="-412" y="107" fill="#fee1e1"/><path fill="#ececec" d="M301 270c9 0 15-8 17-16-8 2-17 7-17 16z"/><use xlink:href="#e" x="136" y="107" fill="#f87575"/><use xlink:href="#e" x="161" y="107" fill="#fee1e1"/><use xlink:href="#f" x="-388" y="108" fill="#f4a0a0"/><use xlink:href="#f" x="-413" y="109" fill="#fc9f9f"/><use xlink:href="#e" x="136" y="110" fill="#f2b0b0"/><use xlink:href="#f" x="160" y="109" fill="#fc9f9f"/><use xlink:href="#f" x="-388" y="110" fill="#f1c1c1"/><g fill="#fc7575"><use xlink:href="#f" x="-413" y="111"/><use xlink:href="#f" x="160" y="111"/></g><use xlink:href="#e" x="-388" y="116" fill="#f87373"/><use xlink:href="#e" x="137" y="116" fill="#f87272"/><g fill="#fde2e2"><use xlink:href="#e" x="-413" y="117"/><use xlink:href="#e" x="162" y="117"/></g><path fill="#f2b5b5" d="M25 266v4-4z"/><path fill="#989898" d="M294 266v5-5z"/><path fill="#fafafa" d="M300 266v5h4a7 7 0 0 0-3-1l-1-4z"/><use xlink:href="#e" x="137" y="119" fill="#f49999"/><path fill="#fdc0c0" d="M0 267v4-4z"/><use xlink:href="#e" x="-114" y="120" fill="#b8b8b8"/><path fill="#feafaf" d="M575 267v5-5z"/><path fill="#efd0d0" d="M550 269v5-5z"/><path fill="#efd7d7" d="M25 270v5-5z"/><path fill="#fc7575" d="M0 271v5-5z"/><use xlink:href="#a" x="36" y="271" fill="#6b6b6b"/><path fill="#ff2323" d="M23 272v31l1-10c0-6 2-15-1-21z"/><path fill="#fc7272" d="M575 272v7-7z"/><path fill="#f87272" d="M24 273v22a37 37 0 0 0 0-22z"/><path fill="#fb5555" d="M551 273v8a10 10 0 0 0 0-8z"/><path fill="#ff2323" d="M552 274v27c3-6 3-21 0-27z"/><path fill="#fc5b5b" d="M0 276v8a10 10 0 0 0 0-8z"/><use xlink:href="#c" x="-2" y="276" fill="#cfcfcf"/><path fill="#fd4747" d="M575 279v6-6z"/><path fill="#f87272" d="M551 281v13c2-4 2-9 0-13z"/><path fill="#ebfdfd" d="M550 284v8a10 10 0 0 0 0-8z"/><path fill="#fd4848" d="M0 290v4-4z"/><path fill="#fc4f4f" d="M575 290v7-7z"/><path fill="#fc6c6c" d="M0 294v9-9z"/><path fill="#fb5858" d="M551 294v7-7z"/><path fill="#fb5757" d="M24 295v6-6z"/><path fill="#fc7373" d="M575 297v6-6z"/><path fill="#f0cbcb" d="M550 301v5-5z"/><path fill="#fd9999" d="M0 304h1-1m575 0h1-1z"/><path fill="#f3a7a7" d="M25 304v5-5z"/><path fill="#feb7b7" d="M0 305v3-3m575 0v3-3z"/><use xlink:href="#e" x="137" y="159" fill="#f3a5a5"/><path fill="#fdd8d8" d="M0 308v3-3m575 0v3-3z"/><use xlink:href="#e" x="-388" y="162" fill="#f77f7f"/><use xlink:href="#e" x="137" y="162" fill="#f77d7d"/><path fill="#fff" d="M0 311v265h240c-4-3-11-3-16-3-3-3-8-3-12-3-2-3-6-3-9-4-6-1-12-3-17-6-4-1-9-2-12-5-5 0-10-2-13-6-3 0-4-1-6-3-5 0-8-3-11-6-4 0-7-3-10-6-5 0-8-4-12-6-7-5-17-10-21-18-11-2-16-16-26-21 0-3-1-5-3-8l2 1c-5-10-15-19-21-28A298 298 0 0 1 6 349l-4-23c0-5 0-10-2-15z"/><use xlink:href="#e" x="161" y="164" fill="#fe5151"/><path fill="#fff" d="M575 311c0 27-9 56-19 81a287 287 0 0 1-182 171c-20 6-42 12-63 12 7 3 17 1 24 1h241V335c0-7 2-17-1-24z"/><use xlink:href="#e" x="-412" y="165" fill="#fe5757"/><use xlink:href="#e" x="137" y="165" fill="#fb5151"/><use xlink:href="#e" x="161" y="167" fill="#fc7575"/><use xlink:href="#e" x="-412" y="168" fill="#fc8686"/><use xlink:href="#e" x="-387" y="168" fill="#f1c0c0"/><use xlink:href="#e" x="136" y="168" fill="#f1bfbf"/><use xlink:href="#c" x="-70" y="316" fill="#878787"/><use xlink:href="#c" x="-68" y="316" fill="#353535"/><path d="M220 344c-9-5-5-12 2-17a36 36 0 0 1 27-6c10 3 12 12 6 20l-8 7a54 54 0 0 1-15 6 126 126 0 0 1 8-16c3-4 6-8 6-13-8 2-12 13-16 20-2 5-3 9-8 10 1 7-1 13-1 20 7-2 5-11 10-15l11-4a37 37 0 0 0 16-10c8-9 9-23-4-28s-38 0-43 14c-2 4-1 9 1 12 2 4 6 5 8 0z"/><use xlink:href="#f" x="160" y="169" fill="#fdbaba"/><use xlink:href="#f" x="-388" y="170" fill="#f68c8c"/><use xlink:href="#f" x="135" y="170" fill="#f68a8a"/><use xlink:href="#e" x="161" y="172" fill="#fee1e1"/><use xlink:href="#f" x="-388" y="172" fill="#f96363"/><use xlink:href="#f" x="135" y="172" fill="#fa6161"/><use xlink:href="#f" x="-412" y="173" fill="#fd5d5d"/><use xlink:href="#a" x="-30" y="321" fill="#484848"/><use xlink:href="#a" x="-18" y="321" fill="#5e5e5e"/><use xlink:href="#e" x="160" y="174" fill="#fd5d5d"/><use xlink:href="#c" x="45" y="322" fill="#1f1f1f"/><use xlink:href="#e" x="-411" y="176" fill="#fe8181"/><path d="m334 337 2 7c0 8-8 16-14 20-1-7 4-11 4-17s-6-6-10-3l-5 3 1-6c-7 1-8 12-12 17-2 2-6 7-8 4-1-2 0-5 1-7 2-5 5-9 4-14-5 2-6 7-8 11-3 6-7 12-14 14 1-7 11-15 3-21l-4-2a36 36 0 0 0 1-7c-6 1-5 4-7 9 0 3-2 5-3 8l4 1c2-5 4-6 9-4-3 4-6 8-7 13 0 6 4 8 9 6l7-5c3 5 8 5 13 6 6-10 11-20 22-25-1 6-5 10-5 16 0 5 4 8 9 6l5-3c1 7 8 7 13 4a42 42 0 0 0 15-20c3 5 5 14-1 17h-7c2 6 7 5 12 4 8-3 16-9 18-18-6 2-10 9-15 12l-1-10-1-7v-6c-2-6-6 2-7 4-4 6-7 12-12 17-2 2-4 4-7 4-5-1-1-8-1-11 4-8 6-13 15-13v-4h-6l5-14c-9 1-7 13-17 14z"/><use xlink:href="#f" x="-63" y="175" fill="#707070"/><use xlink:href="#e" x="-386" y="177" fill="#f1b8b8"/><use xlink:href="#e" x="135" y="177" fill="#f2b6b6"/><use xlink:href="#f" x="159" y="176" fill="#fd9b9b"/><use xlink:href="#c" x="-2" y="325" fill="#cbcbcb"/><use xlink:href="#f" x="-412" y="178" fill="#fcc4c4"/><use xlink:href="#f" x="-168" y="178" fill="#1a1a1a"/><path d="m299 334 3-1c4-5-3-9-4-2l1 3z"/><use xlink:href="#f" x="159" y="178" fill="#fccbcb"/><use xlink:href="#e" x="-386" y="180" fill="#f96666"/><use xlink:href="#e" x="135" y="180" fill="#fa6565"/><use xlink:href="#f" x="-110" y="180" fill="#929292"/><path fill="#b8b8b8" d="M258 329v5-5z"/><path fill="#7c7c7c" d="M264 329v6-6z"/><path fill="#9f9f9f" d="M297 329v4-4z"/><use xlink:href="#f" x="-411" y="182" fill="#fc7c7c"/><use xlink:href="#e" x="-385" y="183" fill="#f1bfbf"/><use xlink:href="#e" x="134" y="183" fill="#f1bdbd"/><use xlink:href="#f" x="158" y="182" fill="#fc7c7c"/><use xlink:href="#e" x="-410" y="185" fill="#febaba"/><use xlink:href="#e" x="159" y="185" fill="#febbbb"/><use xlink:href="#f" x="-386" y="185" fill="#fa6161"/><use xlink:href="#f" x="133" y="185" fill="#fa5f5f"/><use xlink:href="#c" x="-4" y="334" fill="#ccc"/><use xlink:href="#e" x="-409" y="188" fill="#fe5a5a"/><path fill="#2b2b2b" d="M209 335v5-5z"/><use xlink:href="#c" x="-31" y="335" fill="#6f6f6f"/><use xlink:href="#e" x="158" y="188" fill="#fe5c5c"/><use xlink:href="#e" x="-384" y="189" fill="#f2b8b8"/><use xlink:href="#e" x="-199" y="189" fill="#a2a2a2"/><use xlink:href="#d" x="76" y="335" fill="#949494"/><use xlink:href="#d" x="88" y="335" fill="#a5a5a5"/><use xlink:href="#e" x="133" y="189" fill="#f2b6b6"/><use xlink:href="#e" x="-138" y="190" fill="#a4a4a4"/><use xlink:href="#f" x="-410" y="190" fill="#fdc1c1"/><use xlink:href="#f" x="-62" y="190" fill="#1b1b1b"/><use xlink:href="#f" x="157" y="190" fill="#fec4c4"/><path fill="#181818" d="M268 339v4-4z"/><use xlink:href="#f" x="-49" y="191" fill="#c7c7c7"/><use xlink:href="#c" x="6" y="340" fill="#393939"/><use xlink:href="#f" x="-140" y="193" fill="#343434"/><use xlink:href="#b" x="48" y="341" fill="#767676"/><use xlink:href="#e" x="157" y="194" fill="#fd6666"/><use xlink:href="#e" x="-408" y="195" fill="#fe8181"/><use xlink:href="#f" x="-384" y="194" fill="#f68484"/><use xlink:href="#f" x="-116" y="194" fill="#c8c8c8"/><path fill="#f9f9f9" d="M342 346c3-2 6-3 10-3-4-2-8-1-10 3z"/><path fill="#818181" d="M364 342v4-4z"/><use xlink:href="#f" x="131" y="194" fill="#f78181"/><use xlink:href="#f" x="-146" y="195" fill="#7b7b7b"/><path fill="#494949" d="M326 344v4-4z"/><use xlink:href="#f" x="156" y="196" fill="#fcd0d0"/><use xlink:href="#f" x="-194" y="197" fill="#c7c7c7"/><use xlink:href="#c" x="17" y="345" fill="#181818"/><use xlink:href="#c" x="8" y="346" fill="#1f1f1f"/><use xlink:href="#f" x="-93" y="198" fill="#a1a1a1"/><use xlink:href="#e" x="-49" y="199" fill="#202020"/><use xlink:href="#f" x="-408" y="199" fill="#fd9898"/><use xlink:href="#f" x="-383" y="199" fill="#f87878"/><use xlink:href="#f" x="130" y="199" fill="#f87676"/><use xlink:href="#f" x="155" y="199" fill="#fd9999"/><use xlink:href="#e" x="-48" y="201" fill="#b4b4b4"/><use xlink:href="#f" x="-408" y="201" fill="#fddede"/><use xlink:href="#e" x="-131" y="202" fill="#b5b5b5"/><use xlink:href="#e" x="-53" y="202" fill="#5d5d5d"/><use xlink:href="#f" x="155" y="201" fill="#fde1e1"/><use xlink:href="#c" x="75" y="350" fill="#2e2e2e"/><use xlink:href="#f" x="-407" y="203" fill="#fc7d7d"/><use xlink:href="#f" x="-382" y="203" fill="#f77979"/><use xlink:href="#e" x="-48" y="204" fill="#5d5d5d"/><use xlink:href="#f" x="129" y="203" fill="#f87777"/><use xlink:href="#e" x="-53" y="205" fill="#b0b0b0"/><use xlink:href="#f" x="154" y="204" fill="#fcb0b0"/><use xlink:href="#f" x="-407" y="205" fill="#fed6d6"/><use xlink:href="#a" x="-33" y="353" fill="#535353"/><use xlink:href="#a" x="-42" y="354" fill="#919191"/><use xlink:href="#f" x="-381" y="207" fill="#f96c6c"/><use xlink:href="#e" x="-52" y="208" fill="#272727"/><path fill="#c3c3c3" d="M366 355v6-6z"/><use xlink:href="#f" x="128" y="207" fill="#f96a6a"/><use xlink:href="#f" x="-406" y="208" fill="#fd9191"/><use xlink:href="#e" x="154" y="209" fill="#fd9595"/><use xlink:href="#f" x="-380" y="210" fill="#f58f8f"/><use xlink:href="#e" x="-122" y="211" fill="#494949"/><use xlink:href="#e" x="-52" y="211" fill="#474747"/><use xlink:href="#c" x="-72" y="359" fill="#d2d2d2"/><path fill="#242424" d="M316 359v5-5z"/><use xlink:href="#f" x="127" y="211" fill="#fa5c5c"/><use xlink:href="#f" x="-79" y="212" fill="#828282"/><use xlink:href="#f" x="-405" y="213" fill="#fdd4d4"/><use xlink:href="#f" x="-123" y="213" fill="#7b7b7b"/><path fill="#fdfdfd" d="M336 361v4-4z"/><use xlink:href="#f" x="152" y="213" fill="#fdd7d7"/><use xlink:href="#e" x="-78" y="215" fill="#9f9f9f"/><g fill="#313131"><use xlink:href="#c" x="63" y="362"/><path d="M270 363v4-4z"/></g><use xlink:href="#f" x="-139" y="215" fill="#d7d7d7"/><use xlink:href="#c" x="-11" y="363" fill="#b0b0b0"/><use xlink:href="#c" x="19" y="363" fill="#383838"/><use xlink:href="#c" x="26" y="364" fill="#3d3d3d"/><use xlink:href="#c" x="49" y="364" fill="#9b9b9b"/><use xlink:href="#a" x="71" y="365" fill="#a5a5a5"/><use xlink:href="#c" x="53" y="365" fill="#686868"/><use xlink:href="#f" x="-64" y="218" fill="#b8b8b8"/><use xlink:href="#f" x="-403" y="219" fill="#fd9c9c"/><use xlink:href="#f" x="150" y="219" fill="#fd9b9b"/><use xlink:href="#a" x="26" y="368" fill="#373737"/><g fill="#b8b8b8"><use xlink:href="#c" x="-8" y="368"/><use xlink:href="#a" x="56" y="368"/></g><use xlink:href="#f" x="-377" y="221" fill="#fc4e4e"/><use xlink:href="#a" x="9" y="370" fill="#8a8a8a"/><use xlink:href="#c" x="-5" y="370" fill="#d4d4d4"/><use xlink:href="#d" x="76" y="369" fill="#3d3d3d"/><use xlink:href="#e" x="-193" y="224" fill="#191919"/><use xlink:href="#f" x="-189" y="223" fill="#616161"/><use xlink:href="#c" x="-81" y="375" fill="#535353"/><path fill="#fefefe" d="M72 481c1 3 3 5 3 8 8 6 16 20 26 21 3 9 16 15 23 20 3 2 6 4 10 4 2 4 6 6 10 6 2 4 6 6 11 6 2 3 3 3 6 3 2 4 9 6 13 6 2 3 8 5 12 5 5 7 20 4 26 10 4 0 9 0 12 3 7 0 13 2 19 3h22c-4-2-10-1-15-2a317 317 0 0 1-98-32 291 291 0 0 1-56-39c-8-7-15-17-24-22z"/><use xlink:href="#c" x="-100" y="537" fill="#f1bfbf"/><use xlink:href="#c" x="66" y="538" fill="#fb4f4f"/><use xlink:href="#c" x="63" y="539" fill="#fc4c4c"/><use xlink:href="#c" x="-87" y="541" fill="#f0c9c9"/><use xlink:href="#c" x="-84" y="542" fill="#f4a0a0"/><use xlink:href="#c" x="52" y="542" fill="#f87474"/><use xlink:href="#c" x="-80" y="543" fill="#f3adad"/><use xlink:href="#c" x="48" y="543" fill="#f78282"/><use xlink:href="#c" x="-77" y="544" fill="#f77e7e"/><use xlink:href="#a" x="-37" y="544" fill="#f0cbcb"/><use xlink:href="#a" x="80" y="544" fill="#f0caca"/><use xlink:href="#c" x="45" y="544" fill="#fb5656"/><path fill="#f68a8a" d="M231 545a7 7 0 0 0 3 1 7 7 0 0 0-3-1m112 0v1-1z"/><use xlink:href="#c" x="-67" y="546" fill="#f49d9d"/><use xlink:href="#c" x="-65" y="546" fill="#efcfcf"/><use xlink:href="#a" x="71" y="546" fill="#f2b7b7"/><use xlink:href="#c" x="36" y="546" fill="#fb5151"/><use xlink:href="#a" x="-25" y="547" fill="#fa6161"/><path fill="#f1c0c0" d="M244 547v1-1m86 0a7 7 0 0 0 3 1 7 7 0 0 0-3-1z"/><use xlink:href="#c" x="30" y="547" fill="#fa6060"/><use xlink:href="#a" x="-19" y="548" fill="#f96969"/><use xlink:href="#c" x="-54" y="548" fill="#f1bebe"/><use xlink:href="#c" x="22" y="548" fill="#f49f9f"/><use xlink:href="#a" x="62" y="548" fill="#f96969"/><use xlink:href="#a" x="-13" y="549" fill="#fa5d5d"/><use xlink:href="#c" x="-48" y="549" fill="#f59898"/><use xlink:href="#a" x="-8" y="549" fill="#f1baba"/><use xlink:href="#c" x="12" y="549" fill="#f0c9c9"/><use xlink:href="#a" x="52" y="549" fill="#f3aaaa"/><use xlink:href="#a" x="55" y="549" fill="#f87070"/><use xlink:href="#a" x="-2" y="550" fill="#f87272"/><use xlink:href="#d" x="7" y="549" fill="#f2b2b2"/><use xlink:href="#a" x="37" y="550" fill="#efcfcf"/><use xlink:href="#a" x="40" y="550" fill="#f2b2b2"/><use xlink:href="#b" x="12" y="550" fill="#f87272"/><path fill="#f87272" d="M281 551c4 2 9 1 13 1-4-2-9-1-13-1z"/><use xlink:href="#b" x="-2" y="551" fill="#fb5757"/><path fill="#ff2424" d="M274 552c7 3 19 1 27 1-7-3-19-1-27-1z"/><use xlink:href="#c" x="-96" y="564" fill="#fe7575"/><use xlink:href="#c" x="64" y="564" fill="#fca3a3"/><use xlink:href="#c" x="-92" y="565" fill="#fe5d5d"/><use xlink:href="#c" x="-89" y="566" fill="#fd8181"/><use xlink:href="#c" x="57" y="566" fill="#feb4b4"/><use xlink:href="#c" x="-85" y="567" fill="#fd7070"/><use xlink:href="#c" x="53" y="567" fill="#fd9b9b"/><use xlink:href="#c" x="-81" y="568" fill="#fc8080"/><use xlink:href="#a" x="85" y="568" fill="#fe5858"/><use xlink:href="#c" x="50" y="568" fill="#fed9d9"/><path fill="#fe9c9c" d="M227 569v1-1m121 0v1-1z"/><use xlink:href="#c" x="46" y="569" fill="#fde2e2"/><use xlink:href="#c" x="-72" y="570" fill="#fe8787"/><use xlink:href="#c" x="-70" y="570" fill="#fd5050"/><use xlink:href="#a" x="76" y="570" fill="#fd6a6a"/><use xlink:href="#c" x="41" y="570" fill="#fdd5d5"/><use xlink:href="#c" x="-68" y="571" fill="#fdc9c9"/><use xlink:href="#c" x="-66" y="571" fill="#fc7f7f"/><use xlink:href="#a" x="70" y="571" fill="#fe5e5e"/><use xlink:href="#c" x="35" y="571" fill="#fdc8c8"/><use xlink:href="#a" x="-24" y="572" fill="#fdbcbc"/><use xlink:href="#c" x="-59" y="572" fill="#fd5b5b"/><use xlink:href="#c" x="27" y="572" fill="#fc7d7d"/><use xlink:href="#a" x="67" y="572" fill="#fdbcbc"/><use xlink:href="#c" x="-56" y="573" fill="#fcc2c2"/><use xlink:href="#c" x="-54" y="573" fill="#fd9393"/><use xlink:href="#c" x="-52" y="573" fill="#fd6a6a"/><use xlink:href="#a" x="56" y="573" fill="#fd5656"/><use xlink:href="#a" x="59" y="573" fill="#fd9393"/><use xlink:href="#c" x="24" y="573" fill="#fddbdb"/><use xlink:href="#a" x="-11" y="574" fill="#fedddd"/><use xlink:href="#c" x="-46" y="574" fill="#fc9696"/><use xlink:href="#d" y="573" fill="#fe5454"/><use xlink:href="#a" x="48" y="574" fill="#fe5e5e"/><use xlink:href="#a" x="51" y="574" fill="#fc9696"/><use xlink:href="#a" x="54" y="574" fill="#fedddd"/><use xlink:href="#a" y="575" fill="#fdd2d2"/><use xlink:href="#a" x="3" y="575" fill="#feb2b2"/><use xlink:href="#b" y="575" fill="#fc6565"/><use xlink:href="#c" y="575" fill="#fd9292"/><use xlink:href="#a" x="40" y="575" fill="#feb2b2"/><use xlink:href="#a" x="43" y="575" fill="#fdd2d2"/><defs><path id="a" d="M265 0a7 7 0 0 0 3 1 7 7 0 0 0-3-1z"/><path id="c" d="M304 0v1-1z"/><path id="e" d="M413 147v3-3z"/><path id="f" d="M414 149h1-1z"/></defs></svg>